<svg width="24" height="24" viewBox="0 0 24 24" fill="none" xmlns="http://www.w3.org/2000/svg">
<path d="M16.9688 5.11642V3.3047C16.9688 3.14767 16.7883 3.06095 16.6664 3.15704L6.10081 11.4094C6.01105 11.4792 5.93841 11.5686 5.88844 11.6707C5.83847 11.7729 5.8125 11.8851 5.8125 11.9988C5.8125 12.1126 5.83847 12.2248 5.88844 12.3269C5.93841 12.4291 6.01105 12.5185 6.10081 12.5883L16.6664 20.8406C16.7907 20.9367 16.9688 20.85 16.9688 20.693V18.8813C16.9688 18.7664 16.9149 18.6563 16.8258 18.586L8.38832 12L16.8258 5.41173C16.9149 5.34142 16.9688 5.23126 16.9688 5.11642Z" fill="white"/>
</svg>
