<svg width="24" height="24" viewBox="0 0 24 24" fill="none" xmlns="http://www.w3.org/2000/svg">
<path d="M7.03122 5.11642V3.3047C7.03122 3.14767 7.21169 3.06095 7.33356 3.15704L17.8992 11.4094C17.989 11.4792 18.0616 11.5686 18.1116 11.6707C18.1615 11.7729 18.1875 11.8851 18.1875 11.9988C18.1875 12.1126 18.1615 12.2248 18.1116 12.3269C18.0616 12.4291 17.989 12.5185 17.8992 12.5883L7.33356 20.8406C7.20934 20.9367 7.03122 20.85 7.03122 20.693V18.8813C7.03122 18.7664 7.08512 18.6563 7.17418 18.586L15.6117 12L7.17418 5.41173C7.08512 5.34142 7.03122 5.23126 7.03122 5.11642Z" fill="white"/>
</svg>
