<svg width="179" height="45" viewBox="0 0 179 45" fill="none" xmlns="http://www.w3.org/2000/svg">
<path d="M3.06 34H10.152V7H3.06V34Z" fill="url(#paint0_linear_62_5)"/>
<path d="M15.7388 34H21.4988V25C21.4988 23.56 22.6148 22.444 24.2348 22.444C25.4588 22.444 26.5388 23.452 26.5388 25V34H31.9388V25C31.9388 20.392 28.2308 17.044 24.1268 17.044C23.1548 17.044 22.2548 17.26 21.4988 17.548V17.44H15.7388V34ZM41.6976 34.36C44.7936 34.36 48.1056 32.308 48.1056 29.176C48.1056 25.036 43.8576 23.74 41.8056 23.74C40.7616 23.74 39.9696 23.2 39.9696 22.408C39.9696 21.58 40.7616 21.112 41.6256 21.112C42.8136 21.112 43.3896 21.796 43.3896 22.408H48.1056C48.1056 19.348 44.8656 17.08 41.6256 17.08C38.4216 17.08 35.2176 19.06 35.2176 22.48C35.2176 25.72 38.4936 27.736 41.6256 27.736C42.7416 27.736 43.3896 28.24 43.3896 29.068C43.3896 29.86 42.7776 30.4 41.7336 30.4C40.6176 30.4 39.9336 29.824 39.9336 29.068H35.1816C35.1816 31.732 37.7016 34.36 41.6976 34.36ZM61.3164 17.44H58.4724V12.472H52.7124V17.44H49.8684V21.796H52.7124V34H58.4724V21.796H61.3164V17.44ZM77.0543 17.44V18.232C75.7583 17.476 74.3183 17.08 72.7343 17.08C67.9103 17.08 64.0223 20.932 64.0223 25.72C64.0223 30.544 67.9103 34.36 72.7343 34.36C74.3183 34.36 75.7583 33.964 77.0543 33.208V34H82.9223V17.44H77.0543ZM72.7343 29.032C71.0063 29.032 69.5303 27.592 69.5303 25.792C69.5303 24.028 71.0063 22.588 72.7343 22.588C74.4983 22.588 75.8303 24.028 75.8303 25.792C75.8303 27.592 74.4983 29.032 72.7343 29.032ZM97.1381 34H104.23V26.836H108.658C114.022 26.836 118.45 22.372 118.45 16.936C118.45 11.464 113.986 7 108.514 7H97.1381V34ZM104.23 20.716V12.976H108.622C110.782 12.976 112.51 14.704 112.51 16.864C112.51 19.024 110.782 20.716 108.622 20.716H104.23ZM122.051 34H127.811V7H122.051V34ZM170.032 17.44V26.332C170.032 27.736 168.88 28.852 167.26 28.852C166.036 28.852 164.92 27.844 164.92 26.332V17.44H159.484V26.332C159.484 30.976 163.228 34.36 167.332 34.36C168.34 34.36 169.24 34.144 170.032 33.892V35.512C170.032 37.708 168.772 39.076 166.504 39.076H162.472V44.872H166.396C172.048 44.872 175.792 40.696 175.792 35.512V17.44H170.032Z" fill="white"/>
<path d="M156 21.4884L136.5 33.0085L136.5 9.96821L156 21.4884Z" fill="url(#paint1_linear_62_5)"/>
<defs>
<linearGradient id="paint0_linear_62_5" x1="89.5" y1="0" x2="89.5" y2="44" gradientUnits="userSpaceOnUse">
<stop stop-color="#FF5E62"/>
<stop offset="1" stop-color="#FF9966"/>
</linearGradient>
<linearGradient id="paint1_linear_62_5" x1="156" y1="21.4884" x2="130" y2="21.4884" gradientUnits="userSpaceOnUse">
<stop stop-color="#FF9966"/>
<stop offset="1" stop-color="#FF5E62"/>
</linearGradient>
</defs>
</svg>
